<svg width="48" height="49" viewBox="0 0 48 49" fill="none" xmlns="http://www.w3.org/2000/svg">
<path d="M24 0.900146C10.7452 0.900146 0 11.6453 0 24.9001C0 38.155 10.7452 48.9001 24 48.9001C37.2548 48.9001 48 38.155 48 24.9001C48 11.6453 37.2548 0.900146 24 0.900146ZM34.5 23.4001C35.3284 23.4001 36 24.0717 36 24.9001C36 25.7286 35.3284 26.4001 34.5 26.4001H17.1213L23.5607 32.8395C24.1464 33.4253 24.1464 34.375 23.5607 34.9608C22.9749 35.5466 22.0251 35.5466 21.4393 34.9608L12.4393 25.9608C11.8536 25.375 11.8536 24.4253 12.4393 23.8395L21.4393 14.8395C22.0251 14.2537 22.9749 14.2537 23.5607 14.8395C24.1464 15.4253 24.1464 16.375 23.5607 16.9608L17.1213 23.4001H34.5Z" fill="white"/>
</svg>
