<svg width="48" height="49" viewBox="0 0 48 49" fill="none" xmlns="http://www.w3.org/2000/svg">
<g id="arrow-left-circle-fill">
<path id="Subtract" d="M24 48.9001C37.2548 48.9001 48 38.155 48 24.9001C48 11.6453 37.2548 0.900146 24 0.900146C10.7452 0.900146 0 11.6453 0 24.9001C0 38.155 10.7452 48.9001 24 48.9001ZM13.5 26.4001C12.6716 26.4001 12 25.7286 12 24.9001C12 24.0717 12.6716 23.4001 13.5 23.4001H30.8787L24.4393 16.9608C23.8536 16.375 23.8536 15.4253 24.4393 14.8395C25.0251 14.2537 25.9749 14.2537 26.5607 14.8395L35.5607 23.8395C36.1464 24.4253 36.1464 25.375 35.5607 25.9608L26.5607 34.9608C25.9749 35.5466 25.0251 35.5466 24.4393 34.9608C23.8536 34.375 23.8536 33.4253 24.4393 32.8395L30.8787 26.4001H13.5Z" fill="white"/>
</g>
</svg>
