<svg width="142" height="94" viewBox="0 0 142 94" fill="none" xmlns="http://www.w3.org/2000/svg">
<g id="Asset 2ldpi 2" clip-path="url(#clip0_180_761)">
<g id="Layer 1">
<g id="Group">
<path id="Vector" d="M36.2553 35.2418C36.2553 26.1696 39.6845 17.8978 45.3191 11.655V0H0V15.1036H30.2128V70.4836H45.3191V58.8287C39.6845 52.5808 36.2553 44.3141 36.2553 35.2418Z" fill="white"/>
<path id="Vector_2" d="M111.787 0H96.6807V15.1036V70.4836H111.787V15.1036H142V0H111.787Z" fill="white"/>
<path id="Vector_3" d="M127.397 33.9832H87.1133V44.0522H127.397V33.9832Z" fill="#FF3131"/>
<path id="Vector_4" d="M95.1704 44.9031C91.4391 53.4417 82.9292 59.4076 73.0143 59.4076C59.6653 59.4076 48.8441 48.5884 48.8441 35.2418C48.8441 21.8952 59.6653 11.076 73.0143 11.076C82.9292 11.076 91.4391 17.047 95.1704 25.5805V7.83879C89.1177 2.94017 81.4085 0 73.0143 0C53.5472 0 37.7661 15.7783 37.7661 35.2418C37.7661 54.7054 53.5472 70.4836 73.0143 70.4836C81.4085 70.4836 89.1177 67.5435 95.1704 62.6448V44.9031Z" fill="#FF3131"/>
<g id="Group_2">
<path id="Vector_5" d="M1.88854 93.8591V81.2727H0.0405273V78.2822H6.85854V81.2727H5.01053V93.8591H1.88854Z" fill="white"/>
<path id="Vector_6" d="M8.08203 93.8591V78.2822H11.1788V83.8504H12.6492V78.2822H15.746V93.8591H12.6492V86.7956H11.1788V93.8591H8.08203Z" fill="white"/>
<path id="Vector_7" d="M17.4937 93.8591V78.2822H23.7276V81.2929H20.666V84.3287H23.6067V87.2588H20.666V90.8233H23.934V93.8591H17.4987H17.4937Z" fill="white"/>
<path id="Vector_8" d="M33.1388 94.0002C30.9131 94.0002 29.8003 92.4093 29.8003 89.2224V82.5063C29.8003 79.5963 31.0743 78.1414 33.6222 78.1414C34.6746 78.1414 35.4803 78.3528 36.0392 78.7757C36.5982 79.1986 36.9859 79.8128 37.1974 80.6234C37.4089 81.4339 37.5146 82.4157 37.5146 83.5787H34.4682V82.1992C34.4682 81.8619 34.4228 81.5799 34.3322 81.3534C34.2416 81.1268 34.0502 81.011 33.7632 81.011C33.4057 81.011 33.164 81.1319 33.0482 81.3735C32.9323 81.6152 32.877 81.882 32.877 82.169V89.7158C32.877 90.1336 32.9324 90.476 33.0431 90.7378C33.1539 90.9996 33.3654 91.1305 33.6826 91.1305C33.9999 91.1305 34.2315 90.9996 34.3423 90.7378C34.4531 90.476 34.5084 90.1286 34.5084 89.6956V87.4754H33.6776V84.787H37.4844V93.8592H36.2356L35.7069 92.5502C35.1631 93.5169 34.307 94.0002 33.1388 94.0002Z" fill="white"/>
<path id="Vector_9" d="M39.0806 93.8591V78.2822H43.8592C44.6548 78.2822 45.2591 78.4635 45.667 78.826C46.0748 79.1884 46.3467 79.6969 46.4877 80.3464C46.6287 80.9958 46.6942 81.7661 46.6942 82.6421C46.6942 83.5181 46.5884 84.1726 46.3719 84.6761C46.1554 85.1796 45.7526 85.537 45.1533 85.7283C45.6418 85.829 45.9892 86.0707 46.1856 86.4583C46.382 86.846 46.4827 87.3444 46.4827 87.9586V93.8541H43.4111V87.7572C43.4111 87.3041 43.3204 87.0222 43.1341 86.9114C42.9478 86.8007 42.6507 86.7453 42.2378 86.7453V93.8541H39.0856L39.0806 93.8591ZM42.2479 84.0518H42.9982C43.4312 84.0518 43.6427 83.5836 43.6427 82.6472C43.6427 82.038 43.5974 81.6403 43.5017 81.454C43.406 81.2677 43.2298 81.1721 42.973 81.1721H42.2479V84.0569V84.0518Z" fill="white"/>
<path id="Vector_10" d="M51.8001 94.0001C50.5563 94.0001 49.6046 93.6225 48.945 92.8723C48.2853 92.1222 47.958 91.0347 47.958 89.61V82.2092C47.958 80.875 48.2853 79.8631 48.9349 79.1733C49.5845 78.4836 50.5412 78.1362 51.8001 78.1362C53.0589 78.1362 54.0106 78.4836 54.6652 79.1733C55.3199 79.8631 55.6421 80.875 55.6421 82.2092V89.61C55.6421 91.0297 55.3148 92.1172 54.6552 92.8723C53.9955 93.6275 53.0438 94.0001 51.8001 94.0001ZM51.8252 91.1304C52.2986 91.1304 52.5352 90.6722 52.5352 89.761V82.1588C52.5352 81.3936 52.3036 81.0059 51.8454 81.0059C51.3267 81.0059 51.0649 81.3986 51.0649 82.184V89.7761C51.0649 90.2594 51.1253 90.6068 51.2411 90.8183C51.3569 91.0297 51.5533 91.1304 51.8252 91.1304Z" fill="white"/>
<path id="Vector_11" d="M58.4823 93.8591L56.8105 78.2822H59.857L60.7181 88.1147L61.5942 78.2822H64.4997L65.3306 88.1147L66.1614 78.2822H69.2431L67.5411 93.8591H63.8048L63.0243 86.3627L62.2791 93.8591H58.4823Z" fill="white"/>
<path id="Vector_12" d="M71.8666 93.8591V81.2727H70.0186V78.2822H76.8366V81.2727H74.9886V93.8591H71.8716H71.8666Z" fill="white"/>
<path id="Vector_13" d="M78.0601 93.8591V78.2822H81.1569V83.8504H82.6272V78.2822H85.724V93.8591H82.6272V86.7956H81.1569V93.8591H78.0601Z" fill="white"/>
<path id="Vector_14" d="M92.0786 93.8591V78.2822H98.3125V81.3181H95.2157V83.7951H98.1564V86.7956H95.2157V93.8591H92.0836H92.0786Z" fill="white"/>
<path id="Vector_15" d="M99.0981 93.8591L100.604 78.2822H105.886L107.366 93.8591H104.421L104.199 91.3469H102.321L102.124 93.8591H99.0981ZM102.542 88.8548H103.957L103.278 80.9354H103.137L102.542 88.8548Z" fill="white"/>
<path id="Vector_16" d="M112.311 94C111.183 94 110.277 93.6476 109.587 92.9478C108.897 92.248 108.555 91.2612 108.555 90.0026V82.8183C108.555 81.3079 108.852 80.15 109.451 79.3495C110.05 78.549 111.027 78.1462 112.377 78.1462C113.112 78.1462 113.771 78.2822 114.345 78.554C114.92 78.8259 115.373 79.2287 115.705 79.7724C116.037 80.3161 116.199 80.9908 116.199 81.8114V84.4998H113.102V82.1991C113.102 81.7308 113.041 81.4187 112.925 81.2576C112.81 81.0965 112.623 81.0159 112.377 81.0159C112.09 81.0159 111.893 81.1217 111.792 81.3281C111.692 81.5345 111.641 81.8164 111.641 82.1638V89.9623C111.641 90.3953 111.707 90.6974 111.833 90.8736C111.959 91.0498 112.14 91.1404 112.377 91.1404C112.643 91.1404 112.83 91.0296 112.941 90.8132C113.051 90.5967 113.107 90.3097 113.107 89.9623V87.1581H116.239V90.1033C116.239 91.4727 115.891 92.4645 115.201 93.0837C114.512 93.703 113.545 94.0101 112.306 94.0101L112.311 94Z" fill="white"/>
<path id="Vector_17" d="M118.978 93.8591V81.2727H117.13V78.2822H123.948V81.2727H122.1V93.8591H118.983H118.978Z" fill="white"/>
<path id="Vector_18" d="M128.893 94.0001C127.649 94.0001 126.697 93.6225 126.038 92.8723C125.378 92.1222 125.051 91.0347 125.051 89.61V82.2092C125.051 80.875 125.378 79.8631 126.028 79.1733C126.677 78.4836 127.634 78.1362 128.893 78.1362C130.152 78.1362 131.103 78.4836 131.758 79.1733C132.413 79.8631 132.735 80.875 132.735 82.2092V89.61C132.735 91.0297 132.408 92.1172 131.748 92.8723C131.088 93.6275 130.137 94.0001 128.893 94.0001ZM128.918 91.1304C129.391 91.1304 129.628 90.6722 129.628 89.761V82.1588C129.628 81.3936 129.396 81.0059 128.938 81.0059C128.42 81.0059 128.158 81.3986 128.158 82.184V89.7761C128.158 90.2594 128.218 90.6068 128.334 90.8183C128.45 91.0297 128.646 91.1304 128.918 91.1304Z" fill="white"/>
<path id="Vector_19" d="M134.352 93.8591V78.2822H139.13C139.926 78.2822 140.53 78.4635 140.938 78.826C141.346 79.1884 141.618 79.6969 141.759 80.3464C141.9 80.9958 141.965 81.7661 141.965 82.6421C141.965 83.5181 141.859 84.1726 141.643 84.6761C141.426 85.1796 141.024 85.537 140.424 85.7283C140.913 85.829 141.26 86.0707 141.457 86.4583C141.653 86.846 141.754 87.3444 141.754 87.9586V93.8541H138.682V87.7572C138.682 87.3041 138.591 87.0222 138.405 86.9114C138.219 86.8007 137.922 86.7453 137.509 86.7453V93.8541H134.357L134.352 93.8591ZM137.519 84.0518H138.269C138.702 84.0518 138.914 83.5836 138.914 82.6472C138.914 82.038 138.868 81.6403 138.773 81.454C138.677 81.2677 138.501 81.1721 138.244 81.1721H137.519V84.0569V84.0518Z" fill="white"/>
</g>
</g>
</g>
</g>
<defs>
<clipPath id="clip0_180_761">
<rect width="142" height="94" fill="white"/>
</clipPath>
</defs>
</svg>
