<svg width="189" height="72" viewBox="0 0 189 72" fill="none" xmlns="http://www.w3.org/2000/svg">
<path fill-rule="evenodd" clip-rule="evenodd" d="M186.026 37.6957C185.126 33.6105 183.965 29.8873 181.835 26.2675C180.797 24.4921 179.584 22.8373 178.355 21.1998C176.797 19.0968 175.221 17.0456 173.68 14.9254C172.468 12.3571 171.255 9.80597 170.043 7.23762C168.589 4.18664 167.775 3.8419 164.537 3.18688C163.169 2.91109 161.697 2.60082 160.26 2.72148C159.377 2.79043 158.511 3.03175 157.645 3.25583C156.294 3.65229 154.944 4.10045 153.61 4.53138C152.017 4.99679 150.615 5.75522 150.268 7.49618C149.766 10.1162 149.628 15.8735 152.139 17.4248C153.922 18.528 158.251 19.0451 160.208 18.7693C161.697 18.5625 162.701 17.8902 163.844 17.0628C165.749 22.4236 165.316 27.4051 164.848 32.921C160.294 29.0254 154.926 29.4736 150.719 33.9553C145.576 28.3187 135.446 32.1626 135.359 37.2821C139.896 32.4729 146.58 33.1106 150.13 35.6273C149.732 36.7822 149.299 37.9198 148.9 39.0747C151.983 35.317 153.264 33.4899 159.273 33.5071C164.398 33.5243 167.602 37.8509 172.537 40.5916C169.022 36.1961 168.173 35.2136 167.931 29.284C167.792 26.0434 167.377 23.4233 166.788 19.8208C168.19 22.3719 169.541 24.8885 170.874 27.4741C169.576 22.4408 168.675 18.6486 165.628 14.2187C164.918 14.9771 164.017 15.7011 162.978 16.2872C160.069 17.9592 161.316 16.0975 161.229 13.9601C161.056 11.2022 159.307 14.2015 158.355 15.9424C157.818 16.9766 157.385 16.9249 157.056 16.9249C155.792 16.9939 156.035 11.3745 156.017 11.3401C154.355 9.75425 153.697 16.5285 152.952 16.0286C152.814 15.9079 152.502 15.839 152.329 14.8909C151.931 12.4088 153.593 8.85792 151.152 8.30633C151.169 8.09948 151.221 7.8754 151.273 7.66855C151.532 6.30681 152.745 5.7897 153.922 5.41048C155.273 5.01402 156.606 4.56586 157.957 4.15217C158.771 3.91084 159.567 3.704 160.398 3.63505C161.68 3.54886 163.1 3.82466 164.381 4.08322C167.325 4.66928 167.896 4.85889 169.212 7.61684C173.558 16.7698 177.299 25.3194 181.16 34.7482C179.879 30.2838 178.597 25.8021 177.299 21.3376C177.42 21.4583 177.506 21.5962 177.61 21.7341C178.823 23.3372 180 24.9919 181.022 26.7157C182.771 29.6977 183.861 32.7314 184.675 35.9893C185.455 39.0058 184.848 37.0924 186.199 39.7642C186.909 41.1604 187.429 42.8152 186.84 44.108C185.177 47.7106 172.468 47.1073 168.745 47.2279C173.091 48.107 176.814 49.0378 181.247 49.2274C176.675 51.8992 175.325 51.3304 170.078 50.8133C171.983 51.2787 173.628 51.6923 175.584 51.9854C174.701 52.3301 173.905 52.6749 173.212 52.9334C168.606 54.6571 160.19 56.174 155.844 53.8815C152.069 51.9164 153.091 49.4688 156.485 47.9519C160.329 46.2454 161.68 45.4697 165.645 42.1257C159.498 45.4352 157.056 46.4005 152.727 46.6763C148.052 46.9866 146.424 48.3828 144.9 51.1408C144.814 48.6586 146.199 46.0213 147.584 44.0563C142.649 49.0895 138.545 57.4151 142.493 64.241C147.186 56.8807 148.762 58.1046 156.675 57.6392C162.771 57.2772 167.861 55.9672 173.558 53.8125C177.87 52.1922 185.732 48.831 187.723 44.5217C188.745 42.2808 187.29 39.5401 186.078 37.6785L186.026 37.6957Z" fill="#DAFB30"/>
<path fill-rule="evenodd" clip-rule="evenodd" d="M37.368 4.0315C26.8918 -3.62181 7.61905 0.704725 16.658 21.6134L0 21.9582C6.61472 28.1291 10.4935 33.8863 17.1255 40.04L1.85281 40.4709L47.5844 71.4979L24.1039 45.5904H37.9221C31.9481 39.9021 27.0649 34.7827 21.0563 29.0771H31.0303C20.5887 16.1665 14.3203 -4.98355 37.3853 4.0315H37.368Z" fill="#DAFB30"/>
<path d="M59.5844 46.3661C59.4805 46.797 59.0649 47.159 58.632 47.159H51.2381L50.7013 49.6756H55.5498C55.9654 49.6756 56.2078 50.0203 56.1385 50.4685L56 51.1235C55.9134 51.5372 55.4978 51.882 55.0823 51.882H50.2511L49.316 56.174C49.2294 56.6049 48.7965 56.9669 48.381 56.9669H43.0996C42.6667 56.9669 42.3896 56.6222 42.4762 56.174L44.7965 45.3146C44.8831 44.9009 45.2987 44.5561 45.7316 44.5561H59.1688C59.6017 44.5561 59.8961 44.9009 59.7922 45.3146L59.5844 46.3488V46.3661Z" fill="#DAFB30"/>
<path d="M65.8355 55.3466C64.9177 56.2947 63.6537 56.9325 62.3723 56.9842H60.4329C59.1861 56.9842 58.3377 56.243 58.5281 55.3294L60.1732 47.6761C60.2424 47.3313 60.5714 47.0555 60.9177 47.0555H65.4892C65.8355 47.0555 66.0433 47.3313 65.9913 47.6761L64.5887 54.2952C64.4848 54.7261 64.7792 55.1053 65.2121 55.1053C65.5238 55.1053 65.8182 54.9329 66.0087 54.6916L65.8701 55.3466H65.8355ZM66.3723 45.8317C66.2857 46.1592 65.9567 46.4522 65.6104 46.4522H61.039C60.71 46.4522 60.4849 46.1592 60.5541 45.8317L60.6753 45.2112C60.7619 44.8664 61.0909 44.5906 61.4199 44.5906H65.9913C66.3377 44.5906 66.5801 44.8664 66.4935 45.2112L66.3723 45.8317Z" fill="#DAFB30"/>
<path d="M81.2641 52.2439C81.1775 52.0026 80.9524 51.8302 80.6407 51.8302C80.2078 51.8302 79.7749 52.2095 79.6883 52.6404L79.0996 55.3294C78.9091 56.243 77.7316 56.9842 76.4848 56.9842H67.7229C66.4762 56.9842 65.6277 56.243 65.8182 55.3294L67.8615 45.78C67.9481 45.4352 68.2771 45.1595 68.6234 45.1595H73.1948C73.5238 45.1595 73.7489 45.4352 73.6796 45.78L73.4026 47.0728H78.9437C79.29 47.0728 79.5325 47.3486 79.4459 47.6933L79.342 48.1932C79.2554 48.5207 78.9264 48.8137 78.5801 48.8137H73.039L71.8615 54.3469C71.7229 55.0019 72.0693 55.519 72.658 55.519C73.2467 55.519 73.8009 55.0191 73.9394 54.3813L74.5281 51.5889C74.7359 50.6754 75.7922 50.2789 77.039 50.2789H78.5628C79.8268 50.2961 80.9351 50.6064 81.4545 51.5545L81.316 52.2095L81.2641 52.2439Z" fill="#DAFB30"/>
<path d="M95.7922 55.3466C94.8745 56.2947 93.6104 56.9325 92.329 56.9842H90.3896C89.1429 56.9842 88.2944 56.243 88.4848 55.3294L89.6796 49.6928C89.8182 49.0378 89.4719 48.5207 88.8831 48.5207C88.2944 48.5207 87.7403 49.0378 87.6017 49.6928L86.1645 56.3636C86.0952 56.7084 85.7662 56.9842 85.4199 56.9842H80.8485C80.5022 56.9842 80.2944 56.7084 80.3463 56.3636L82.2164 47.6761C82.2857 47.3313 82.6147 47.0555 82.961 47.0555H87.5325L87.9134 47.5382C88.3983 47.2452 88.987 47.0555 89.6104 47.0555H93.7835C95.0303 47.0555 95.8788 47.7967 95.6883 48.7103L94.5108 54.2952C94.4069 54.7261 94.7013 55.1053 95.1342 55.1053C95.4459 55.1053 95.7403 54.9329 95.9307 54.6916L95.7922 55.3466Z" fill="#DAFB30"/>
<path d="M111.048 55.0364C110.961 54.795 110.736 54.6227 110.424 54.6227C109.991 54.6227 109.576 54.9157 109.489 55.3466C109.281 56.2602 108.121 56.9842 106.874 56.9842H97.697C96.4502 56.9842 95.6017 56.243 95.7922 55.3294L97.1948 48.7103C97.3853 47.7967 98.5628 47.0555 99.8095 47.0555H108.987C110.234 47.0555 111.082 47.7967 110.892 48.7103L110.476 50.6754C110.268 51.5889 109.108 52.3301 107.861 52.3301H102.234L101.801 54.3469C101.662 55.0019 102.009 55.519 102.597 55.519C103.186 55.519 103.74 55.0191 103.879 54.3813C104.069 53.4678 105.212 53.2265 106.459 53.2265H108.364C109.645 53.2265 110.667 53.4161 111.169 54.3641L111.048 55.0191V55.0364ZM104.087 48.5035C103.498 48.5035 102.944 49.0206 102.805 49.6756L102.511 51.0718H104.589L104.883 49.6756C105.022 49.0206 104.675 48.5035 104.087 48.5035Z" fill="#DAFB30"/>
<path d="M126.874 49.6756C125.957 50.6409 124.883 50.5547 124.26 50.5547H121.732C120.485 50.5547 120.156 50.3651 119.983 49.6411C119.861 49.0206 119.636 48.5896 119.013 48.5896C118.39 48.5896 117.87 49.0378 117.749 49.6411C117.61 50.3306 117.628 51.0201 118.407 51.1752L122.563 51.9337C124.156 52.2267 124.779 52.6921 124.45 54.2262L124.225 55.2949C124 56.4153 122.563 56.9497 121.61 56.9497H112.848C111.896 56.9497 110.701 56.4153 110.944 55.2949L111.221 54.0538C111.29 53.7091 111.619 53.4333 111.965 53.4333H116.329C116.883 53.4333 116.848 53.9159 116.762 54.3124C116.641 54.9157 116.952 55.3811 117.576 55.3811C118.199 55.3811 118.719 54.8985 118.84 54.3124C118.978 53.6057 118.978 52.9507 118.182 52.7955L114.026 52.0371C112.433 51.7441 111.827 51.2097 112.139 49.7445L112.364 48.6758C112.606 47.5554 114.026 47.0211 114.978 47.0211H123.706C124.658 47.0211 125.835 47.5554 125.61 48.6758C125.524 49.1068 125.801 49.3998 126.251 49.3998C126.545 49.3998 126.84 49.2274 127.048 49.0033L126.909 49.6411L126.874 49.6756Z" fill="#DAFB30"/>
<path d="M141.524 49.6756C140.606 50.6409 139.532 50.5547 138.909 50.5547H136.381C135.134 50.5547 134.805 50.3651 134.632 49.6411C134.511 49.0206 134.286 48.5896 133.662 48.5896C133.039 48.5896 132.519 49.0378 132.398 49.6411C132.26 50.3306 132.277 51.0201 133.056 51.1752L137.212 51.9337C138.805 52.2267 139.429 52.6921 139.1 54.2262L138.874 55.2949C138.649 56.4153 137.212 56.9497 136.26 56.9497H127.498C126.545 56.9497 125.351 56.4153 125.593 55.2949L125.87 54.0538C125.939 53.7091 126.268 53.4333 126.615 53.4333H130.978C131.532 53.4333 131.498 53.9159 131.411 54.3124C131.29 54.9157 131.602 55.3811 132.225 55.3811C132.848 55.3811 133.368 54.8985 133.489 54.3124C133.628 53.6057 133.628 52.9507 132.831 52.7955L128.675 52.0371C127.082 51.7441 126.476 51.2097 126.788 49.7445L127.013 48.6758C127.255 47.5554 128.675 47.0211 129.628 47.0211H138.355C139.307 47.0211 140.485 47.5554 140.26 48.6758C140.173 49.1068 140.45 49.3998 140.9 49.3998C141.195 49.3998 141.489 49.2274 141.697 49.0033L141.558 49.6411L141.524 49.6756Z" fill="#DAFB30"/>
<path d="M62.8745 22.165L53.8182 30.2148L56.3983 33.9036C58.0952 36.3512 60.1732 36.0582 60.987 35.9375C61.5584 35.8686 62.1126 35.6273 62.4589 35.1791L62.1818 36.403C60.4848 38.1611 58.1299 39.3505 55.7403 39.4367H52.1558C49.8355 39.4367 48.8485 38.6266 47.3766 36.3685L46.7533 35.4032L43.7056 38.2818C43.1342 38.8162 42.1645 39.4367 41.4719 39.4367H32.987C32.6753 39.4367 32.4156 39.2816 32.4849 38.9368C32.5195 38.7127 32.71 38.4369 32.9004 38.2818L41.9567 30.232L36.329 22.1823C36.2078 21.9927 36.1385 21.7686 36.2078 21.5273C36.2424 21.1825 36.5887 21.0274 36.9004 21.0274H45.3853C46.0779 21.0274 46.7706 21.6479 47.1169 22.1823L48.9697 25.0609L52.0519 22.1823C52.6234 21.6479 53.5584 21.0274 54.2857 21.0274H62.7706C63.0822 21.0274 63.342 21.1825 63.2727 21.5273C63.2381 21.7513 63.0476 21.9927 62.8571 22.1823L62.8745 22.165Z" fill="#DAFB30"/>
<path d="M90.4416 35.7824C90.2857 35.317 89.8701 35.0067 89.316 35.0067C88.4675 35.0067 87.7403 35.5411 87.5498 36.3512C87.2035 38.0405 85.0043 39.4195 82.7013 39.4195H65.6623C63.342 39.4195 61.7662 38.0405 62.1126 36.3512L64.7273 24.1128C65.0736 22.4236 67.2381 21.0446 69.5411 21.0446H86.6147C88.9178 21.0446 90.5108 22.4236 90.1645 24.1128L89.7835 25.8366C89.6623 26.4571 89.0216 26.9914 88.3983 26.9914H79.9134C79.2554 26.9914 78.8745 26.4571 78.9957 25.8366C79.2208 24.6472 78.5801 23.7336 77.5238 23.7336C76.4675 23.7336 75.4113 24.6989 75.1342 25.8883L73.2814 34.5586C73.0043 35.7824 73.6623 36.7477 74.7532 36.7477C75.8442 36.7477 76.8658 35.7824 77.1429 34.5931C77.4892 32.9038 79.6017 32.4384 81.9221 32.4384H85.4719C87.8615 32.4384 89.7489 32.7831 90.7186 34.5413L90.4416 35.7652V35.7824Z" fill="#DAFB30"/>
<path d="M118.528 35.8169C118.372 35.3515 117.957 35.0585 117.368 35.0585C116.554 35.0585 115.792 35.5928 115.636 36.403C115.255 38.0922 113.091 39.4367 110.788 39.4367H93.7489C91.4286 39.4367 89.8528 38.0577 90.1991 36.3685L92.8138 24.0956C93.1602 22.4064 95.3593 21.0274 97.6623 21.0274H114.701C117.004 21.0274 118.597 22.4064 118.251 24.0956L117.489 27.7326C117.108 29.4219 114.944 30.8009 112.641 30.8009H102.199L101.385 34.5586C101.108 35.7824 101.766 36.7477 102.857 36.7477C103.948 36.7477 104.97 35.8341 105.247 34.6448C105.593 32.9555 107.706 32.4901 110.026 32.4901H113.576C115.965 32.4901 117.853 32.8349 118.788 34.5931L118.563 35.8169H118.528ZM105.61 23.6991C104.537 23.6991 103.498 24.6644 103.221 25.8883L102.684 28.4911H106.545L107.082 25.8883C107.359 24.6644 106.701 23.6991 105.61 23.6991Z" fill="#DAFB30"/>
<path d="M129.541 34.4379C129.351 35.2481 129.887 35.9375 130.701 35.9375C131.273 35.9375 131.827 35.6273 132.173 35.1791L131.896 36.403C130.199 38.1611 127.844 39.3505 125.455 39.4367H121.87C119.55 39.4367 117.974 38.0577 118.32 36.3685L122.32 17.5799C122.476 16.9249 123.1 16.425 123.74 16.425H132.225C132.848 16.425 133.264 16.9249 133.108 17.5799L129.524 34.4552L129.541 34.4379Z" fill="#DAFB30"/>
</svg>
